<svg xmlns="http://www.w3.org/2000/svg" xmlns:xlink="http://www.w3.org/1999/xlink" width="64" height="64" viewBox="0 0 64 64"><defs><clipPath id="clip-path"><rect id="Rectangle_130" data-name="Rectangle 130" width="64" height="64" transform="translate(391 5195)" fill="#0ad4ec"/></clipPath></defs><g id="Mask_Group_10" data-name="Mask Group 10" transform="translate(-391 -5195)" clip-path="url(#clip-path)"><g id="destination" transform="translate(391 5195)"><path id="Path_103" data-name="Path 103" d="M52.967,48.251a1,1,0,0,0-1.352.417q-.088.167-.179.332H47.43a33.183,33.183,0,0,0,1.127-3.771,1,1,0,1,0-1.946-.459A30.343,30.343,0,0,1,45.281,49H37.6a77.96,77.96,0,0,0,.894-11H43.5a1,1,0,0,0,0-2H38.493a76.729,76.729,0,0,0-1.06-12h7.439a29.948,29.948,0,0,1,1.214,3.29A1,1,0,0,0,48,26.707q-.427-1.4-.957-2.707h3.813c.1.166.2.331.3.5a1,1,0,1,0,1.731-1c-.131-.226-.265-.449-.4-.67a1,1,0,0,0-.416-.65,27.04,27.04,0,0,0-28.8-11.455,1,1,0,0,0,.46,1.946q.973-.23,1.967-.38c-1.632,2.153-2.885,5.646-3.75,9.71H13.734a.994.994,0,0,0-.464,0H9.5q.372-.5.769-.975a1,1,0,1,0-1.538-1.279,26.8,26.8,0,0,0-1.8,2.43,1,1,0,0,0-.418.659A27,27,0,1,0,53.384,49.6,1,1,0,0,0,52.967,48.251ZM44.4,51a23.6,23.6,0,0,1-4.321,6.214A16.151,16.151,0,0,1,33.56,61.36c1.622-2.334,2.86-6.035,3.691-10.36ZM37.049,22a26.84,26.84,0,0,0-3.488-9.358C37.694,13.968,41.354,17.285,43.9,22Zm5.127-6.553A25.152,25.152,0,0,1,49.5,22H46.147a24.787,24.787,0,0,0-5.336-7.3Q41.5,15.053,42.175,15.447ZM25.321,17.359C26.561,14,28.123,12,29.5,12c1.612,0,3.37,2.583,4.7,6.909.3.968.568,2,.811,3.091H23.99A36.185,36.185,0,0,1,25.321,17.359ZM21.588,33a1,1,0,0,0,1.058-.938A68.617,68.617,0,0,1,23.587,24H35.416a72.88,72.88,0,0,1,1.077,12H31.5a1,1,0,0,0,0,2h4.994a74.462,74.462,0,0,1-.9,11H31.5a1,1,0,0,0,0,2h3.725c-.294,1.459-.636,2.83-1.023,4.091C32.87,59.417,31.112,62,29.5,62c-1.35,0-2.832-1.845-4.067-5.061a1,1,0,1,0-1.867.716,17.257,17.257,0,0,0,1.886,3.707C20.959,59.923,17.1,56.14,14.592,51a1,1,0,0,0-.092-2h-.787a32.5,32.5,0,0,1-2.2-11H13.5a1,1,0,0,0,0-2H11.515a32.179,32.179,0,0,1,2.618-12H21.56a71.283,71.283,0,0,0-.911,7.94A1,1,0,0,0,21.588,33ZM4.522,38H9.515a34.691,34.691,0,0,0,2.053,11H7.574A24.828,24.828,0,0,1,4.522,38Zm7.44-14A34.47,34.47,0,0,0,9.514,36H4.521A25.057,25.057,0,0,1,8.146,24ZM8.8,51h3.586a27.621,27.621,0,0,0,2.874,4.975,23.136,23.136,0,0,0,2.933,3.317A25.178,25.178,0,0,1,8.8,51Zm31.968,8.327q.371-.342.733-.707A25.779,25.779,0,0,0,46.619,51h3.6A24.96,24.96,0,0,1,40.766,59.327Z" fill="#0ad4ec"/><path id="Path_104" data-name="Path 104" d="M12.919,19.814a1,1,0,0,0,1.172-.007c.3-.222,7.409-5.5,7.409-11.807a8,8,0,0,0-16,0C5.5,14.441,12.616,19.6,12.919,19.814ZM13.5,2a6.007,6.007,0,0,1,6,6c0,4.342-4.393,8.389-6.006,9.728C11.879,16.412,7.5,12.432,7.5,8A6.007,6.007,0,0,1,13.5,2Z" fill="#0ad4ec"/><path id="Path_105" data-name="Path 105" d="M17.5,8a1,1,0,0,0-2,0,2,2,0,1,1-2-2,1,1,0,0,0,0-2,4,4,0,1,0,4,4Z" fill="#0ad4ec"/><path id="Path_106" data-name="Path 106" d="M53.5,27a8.009,8.009,0,0,0-8,8c0,6.44,7.116,11.6,7.419,11.814a1,1,0,0,0,1.172-.007c.3-.221,7.409-5.5,7.409-11.807A8.009,8.009,0,0,0,53.5,27Zm-.006,17.728C51.879,43.412,47.5,39.432,47.5,35a6,6,0,0,1,12,0C59.5,39.342,55.107,43.389,53.494,44.728Z" fill="#0ad4ec"/><path id="Path_107" data-name="Path 107" d="M56.5,34a1,1,0,0,0-1,1,2,2,0,1,1-2-2,1,1,0,0,0,0-2,4,4,0,1,0,4,4A1,1,0,0,0,56.5,34Z" fill="#0ad4ec"/><path id="Path_108" data-name="Path 108" d="M14.5,43c0,6.44,7.116,11.6,7.419,11.814a1,1,0,0,0,1.172-.007c.3-.221,7.409-5.5,7.409-11.807a8,8,0,0,0-16,0Zm8-6a6.007,6.007,0,0,1,6,6c0,4.342-4.393,8.389-6.006,9.728C20.879,51.412,16.5,47.432,16.5,43A6.007,6.007,0,0,1,22.5,37Z" fill="#0ad4ec"/><path id="Path_109" data-name="Path 109" d="M22.5,47a4,4,0,0,0,4-4,1,1,0,0,0-2,0,2,2,0,1,1-2-2,1,1,0,0,0,0-2,4,4,0,0,0,0,8Z" fill="#0ad4ec"/></g></g></svg>