<svg xmlns="http://www.w3.org/2000/svg" xmlns:xlink="http://www.w3.org/1999/xlink" width="64" height="64" viewBox="0 0 64 64"><defs><clipPath id="clip-path"><rect id="Rectangle_130" data-name="Rectangle 130" width="64" height="64" transform="translate(391 5195)" fill="#0ad4ec"/></clipPath></defs><g id="Mask_Group_13" data-name="Mask Group 13" transform="translate(-391 -5195)" clip-path="url(#clip-path)"><g id="consulting" transform="translate(389.968 5193.968)"><path id="Path_121" data-name="Path 121" d="M33.762,43.657a1.031,1.031,0,0,0-1.6.175L25.627,54.1,11.963,40.438,22.232,33.9a1.033,1.033,0,0,0,.175-1.6L12.085,21.979a1.031,1.031,0,0,0-1.46,0L5.714,26.89a15.987,15.987,0,0,0,0,22.606L16.569,60.351a15.983,15.983,0,0,0,22.6,0l4.911-4.91a1.032,1.032,0,0,0,0-1.46ZM11.355,24.169l8.682,8.683-3.262,2.076-8.09-8.09Zm16.516,38.8a13.825,13.825,0,0,1-9.843-4.077L7.173,48.037a13.923,13.923,0,0,1,0-19.687l.053-.052,7.766,7.766L9.768,39.388a1.033,1.033,0,0,0-.175,1.6L25.077,56.473a1.031,1.031,0,0,0,1.6-.175L30,51.074l7.766,7.765-.053.053a13.828,13.828,0,0,1-9.843,4.076Zm11.355-5.589L31.137,49.29l2.076-3.263L41.9,54.71Z" fill="#0ad4ec"/><path id="Path_122" data-name="Path 122" d="M64.754,1.359A1.034,1.034,0,0,0,63.7,1.076L55.1,3.656A11.239,11.239,0,0,0,51.613,3.1a11.386,11.386,0,0,0-11.128,9.085l2.024.411A9.263,9.263,0,0,1,54.734,5.711a1.056,1.056,0,0,0,.644.018L62.3,3.652,60.009,9.765a1.034,1.034,0,0,0,.03.8,9.189,9.189,0,0,1,.864,3.891,9.292,9.292,0,0,1-17.809,3.716l-1.891.826a11.356,11.356,0,0,0,21.764-4.542A11.207,11.207,0,0,0,62.09,10.1l2.876-7.67a1.032,1.032,0,0,0-.213-1.067Z" fill="#0ad4ec"/><path id="Path_123" data-name="Path 123" d="M40.258,35.1a9.232,9.232,0,0,1-3.122-.55,1.026,1.026,0,0,0-.644-.018l-6.923,2.077,2.293-6.113a1.034,1.034,0,0,0-.03-.8,9.189,9.189,0,0,1-.864-3.891A9.292,9.292,0,0,1,48.776,22.09l1.891-.827A11.357,11.357,0,0,0,28.9,25.806a11.207,11.207,0,0,0,.877,4.355L26.9,37.831a1.032,1.032,0,0,0,.966,1.395,1.045,1.045,0,0,0,.3-.043l8.6-2.581a11.25,11.25,0,0,0,3.49.559,11.386,11.386,0,0,0,11.128-9.085l-2.024-.411A9.313,9.313,0,0,1,40.258,35.1Z" fill="#0ad4ec"/><path id="Path_124" data-name="Path 124" d="M35.1,24.774h2.065v2.065H35.1Z" fill="#0ad4ec"/><path id="Path_125" data-name="Path 125" d="M39.226,24.774H41.29v2.065H39.226Z" fill="#0ad4ec"/><path id="Path_126" data-name="Path 126" d="M43.355,24.774h2.065v2.065H43.355Z" fill="#0ad4ec"/><path id="Path_127" data-name="Path 127" d="M46.452,13.419h2.065v2.065H46.452Z" fill="#0ad4ec"/><path id="Path_128" data-name="Path 128" d="M50.581,13.419h2.065v2.065H50.581Z" fill="#0ad4ec"/><path id="Path_129" data-name="Path 129" d="M54.71,13.419h2.065v2.065H54.71Z" fill="#0ad4ec"/></g></g></svg>