<svg xmlns="http://www.w3.org/2000/svg" xmlns:xlink="http://www.w3.org/1999/xlink" width="64" height="64" viewBox="0 0 64 64"><defs><clipPath id="clip-path"><rect id="Rectangle_130" data-name="Rectangle 130" width="64" height="64" transform="translate(391 5195)" fill="#0ad4ec"/></clipPath></defs><g id="Mask_Group_11" data-name="Mask Group 11" transform="translate(-391 -5195)" clip-path="url(#clip-path)"><g id="guide" transform="translate(391 5195)"><g id="Group_45" data-name="Group 45"><g id="Group_44" data-name="Group 44"><path id="Path_110" data-name="Path 110" d="M41.6,21.333a3.2,3.2,0,0,0-3.2,3.2V25.6h2.133V24.533a1.067,1.067,0,1,1,2.133,0V25.6H44.8V24.533A3.2,3.2,0,0,0,41.6,21.333Z" fill="#0ad4ec"/></g></g><g id="Group_47" data-name="Group 47"><g id="Group_46" data-name="Group 46"><path id="Path_111" data-name="Path 111" d="M52.267,21.333a3.2,3.2,0,0,0-3.2,3.2V25.6H51.2V24.533a1.067,1.067,0,1,1,2.133,0V25.6h2.133V24.533A3.2,3.2,0,0,0,52.267,21.333Z" fill="#0ad4ec"/></g></g><g id="Group_49" data-name="Group 49"><g id="Group_48" data-name="Group 48"><path id="Path_112" data-name="Path 112" d="M42.667,27.733v2.133a4.267,4.267,0,1,0,8.533,0V27.733ZM46.933,32A2.133,2.133,0,0,1,44.8,29.867h4.267A2.133,2.133,0,0,1,46.933,32Z" fill="#0ad4ec"/></g></g><g id="Group_51" data-name="Group 51"><g id="Group_50" data-name="Group 50"><path id="Path_113" data-name="Path 113" d="M62.933,37.333H52.267v-.112a12.821,12.821,0,0,0,7.274-9.488H60.8a3.2,3.2,0,0,0,0-6.4H59.733v-3.2A11.743,11.743,0,0,0,52.267,7.215V5.333a5.333,5.333,0,1,0-10.667,0V7.215a11.743,11.743,0,0,0-7.467,10.918v3.2H33.067a3.2,3.2,0,1,0,0,6.4h1.26A12.821,12.821,0,0,0,41.6,37.221v.112H23.092L19.2,28.574V22.4a1.067,1.067,0,0,0-1.067-1.067h-3.2V0H11.108A4.678,4.678,0,0,0,7.779,1.378a2.56,2.56,0,0,1-1.821.755H0v12.8H5.958a4.678,4.678,0,0,0,3.329-1.378,2.56,2.56,0,0,1,1.821-.755H12.8v8.533H11.733A1.067,1.067,0,0,0,10.667,22.4v6.4a1.075,1.075,0,0,0,.076.4l5.327,13.317a5.308,5.308,0,0,0,4.953,3.353h8.845V62.933A1.067,1.067,0,0,0,30.933,64h32A1.067,1.067,0,0,0,64,62.933V38.4A1.067,1.067,0,0,0,62.933,37.333Zm-3.2-13.867H60.8a1.067,1.067,0,0,1,0,2.133H59.733ZM34.133,25.6H33.067a1.067,1.067,0,1,1,0-2.133h1.067Zm9.6-20.267a3.2,3.2,0,1,1,6.4,0V6.4h-6.4Zm2.133,3.2H48a9.613,9.613,0,0,1,9.54,8.533H56.533a3.2,3.2,0,0,1-3.2-3.2A1.067,1.067,0,0,0,52.267,12.8H50.133a1.067,1.067,0,0,0-1.067,1.067,3.2,3.2,0,0,1-3.2,3.2h-9.54A9.613,9.613,0,0,1,45.867,8.533ZM36.267,25.6V19.2h9.6a5.343,5.343,0,0,0,5.227-4.267h.213A5.343,5.343,0,0,0,56.533,19.2H57.6v6.4a10.667,10.667,0,0,1-21.333,0ZM50.133,39.467a3.2,3.2,0,1,1-6.4,0Zm-8.533,0a5.333,5.333,0,1,0,10.667,0h2.469l-5.236,9.6H44.367l-5.236-9.6ZM49.067,51.2v6.4H44.8V51.2ZM11.108,10.667a4.678,4.678,0,0,0-3.329,1.378,2.56,2.56,0,0,1-1.821.755H2.133V4.267H5.958A4.678,4.678,0,0,0,9.287,2.889a2.56,2.56,0,0,1,1.821-.755H12.8v8.533Zm1.692,12.8h4.267v4.267H12.8ZM25.6,43.733H21.022a3.183,3.183,0,0,1-2.971-2.012L13.309,29.867H17.44l3.985,8.966a1.067,1.067,0,0,0,.975.634h3.2ZM61.867,61.867H32V44.8a1.067,1.067,0,0,0-1.067-1.067h-3.2V39.467H36.7l5.967,10.939v8.261a1.067,1.067,0,0,0,1.067,1.067h6.4A1.067,1.067,0,0,0,51.2,58.667V50.405l5.967-10.939h4.7Z" fill="#0ad4ec"/></g></g></g></g></svg>