<svg xmlns="http://www.w3.org/2000/svg" xmlns:xlink="http://www.w3.org/1999/xlink" width="64" height="64" viewBox="0 0 64 64"><defs><clipPath id="clip-path"><rect id="Rectangle_130" data-name="Rectangle 130" width="64" height="64" transform="translate(391 5195)" fill="#0ad4ec"/></clipPath></defs><g id="Mask_Group_14" data-name="Mask Group 14" transform="translate(-391 -5195)" clip-path="url(#clip-path)"><g id="discount" transform="translate(391.183 5195)"><path id="Path_130" data-name="Path 130" d="M24.91,50.688l-1.037.182L22.6,43.663a1.052,1.052,0,0,0-.23-.49l-1.328-1.586L19.43,42.937l1.147,1.369,1.223,6.93L13.505,52.7l-2.076.367-.183-1.037a1.061,1.061,0,0,0-.341-.608L6.12,47.207,2.162,24.758a2.106,2.106,0,0,1,4.148-.731l1.264,7.161a4.319,4.319,0,0,0-.479.332,4.224,4.224,0,0,0-.519,5.933l7.739,9.221,1.613-1.353L8.189,36.1a2.113,2.113,0,0,1,.256-2.962,1.966,1.966,0,0,1,.632-.36c.036-.011.316-.1.366-.105a2.089,2.089,0,0,1,1.982.72l1.707,2.033,1.612-1.354L13.037,32.04a4.231,4.231,0,0,0-3.436-1.5l-1.218-6.88a4.212,4.212,0,1,0-8.3,1.462L4.111,47.939a1.05,1.05,0,0,0,.341.608l4.785,4.212.119.673-1.037.183a1.052,1.052,0,0,0-.854,1.221l1.462,8.3A1.052,1.052,0,0,0,9.963,64a1.109,1.109,0,0,0,.185-.015l16.592-2.926a1.052,1.052,0,0,0,.854-1.22l-1.458-8.3a1.053,1.053,0,0,0-1.225-.854ZM10.818,61.726,9.722,55.5l1.033-.182,6.225-1.093,7.259-1.285,1.1,6.222Zm0,0" fill="#0ad4ec"/><path id="Path_131" data-name="Path 131" d="M62.858,21.978a4.212,4.212,0,0,0-7.6,1.685l-1.213,6.874a4.225,4.225,0,0,0-3.435,1.5L48.9,34.067l1.612,1.354,1.707-2.033a2.089,2.089,0,0,1,1.979-.72c.046.009.332.1.368.105a1.945,1.945,0,0,1,.621.351,2.114,2.114,0,0,1,.262,2.97l-7.732,9.227,1.613,1.353,7.739-9.221a4.124,4.124,0,0,0-1-6.265l1.263-7.161a2.106,2.106,0,0,1,4.148.737L57.528,47.215l-4.785,4.212a1.063,1.063,0,0,0-.341.608l-.183,1.037-2.076-.366-8.294-1.462,1.223-6.93,1.147-1.369L42.6,41.594l-1.334,1.578a1.047,1.047,0,0,0-.23.493l-1.27,7.2-1.037-.182a1.053,1.053,0,0,0-1.221.854l-1.462,8.3a1.052,1.052,0,0,0,.854,1.22l16.592,2.926a1.1,1.1,0,0,0,.184.015,1.052,1.052,0,0,0,1.036-.869l1.463-8.3a1.053,1.053,0,0,0-.854-1.221l-1.037-.183.119-.673,4.785-4.212a1.054,1.054,0,0,0,.341-.608l4.022-22.813a4.183,4.183,0,0,0-.7-3.146ZM52.824,61.726l-14.517-2.56,1.1-6.222,7.259,1.285,6.219,1.093,1.033.182Zm0,0" fill="#0ad4ec"/><path id="Path_132" data-name="Path 132" d="M31.821,29.484A4.212,4.212,0,0,0,27.609,33.7c0,2.044,2.856,5.33,3.428,5.968a1.053,1.053,0,0,0,1.567,0c.573-.638,3.428-3.925,3.428-5.968a4.212,4.212,0,0,0-4.212-4.212Zm0,7.846c-1.118-1.4-2.106-2.981-2.106-3.634a2.106,2.106,0,1,1,4.212,0C33.927,34.366,32.938,35.933,31.821,37.329Zm0,0" fill="#0ad4ec"/><path id="Path_133" data-name="Path 133" d="M22.344,33.7A2.106,2.106,0,0,1,24.45,35.8h2.106a4.212,4.212,0,0,0-8.291-1.053,4.212,4.212,0,1,0-.133,8.424V41.066a2.106,2.106,0,1,1,0-4.212,1.9,1.9,0,0,1,.682.118A1.067,1.067,0,0,0,20.238,35.8,2.106,2.106,0,0,1,22.344,33.7Zm0,0" fill="#0ad4ec"/><path id="Path_134" data-name="Path 134" d="M45.51,41.066v2.106a4.212,4.212,0,1,0-.133-8.424A4.212,4.212,0,0,0,37.086,35.8h2.106a2.106,2.106,0,1,1,4.212.021,1.053,1.053,0,0,0,1.421,1.15,1.9,1.9,0,0,1,.685-.118,2.106,2.106,0,1,1,0,4.212Zm0,0" fill="#0ad4ec"/><path id="Path_135" data-name="Path 135" d="M46.563,14.742h2.106v4.212H46.563Zm0,0" fill="#0ad4ec"/><path id="Path_136" data-name="Path 136" d="M46.563,21.06h2.106v2.106H46.563Zm0,0" fill="#0ad4ec"/><path id="Path_137" data-name="Path 137" d="M50.775,17.9h2.106v6.318H50.775Zm0,0" fill="#0ad4ec"/><path id="Path_138" data-name="Path 138" d="M50.775,26.325h2.106v2.106H50.775Zm0,0" fill="#0ad4ec"/><path id="Path_139" data-name="Path 139" d="M14.973,14.742h2.106v4.212H14.973Zm0,0" fill="#0ad4ec"/><path id="Path_140" data-name="Path 140" d="M14.973,21.06h2.106v2.106H14.973Zm0,0" fill="#0ad4ec"/><path id="Path_141" data-name="Path 141" d="M10.761,17.9h2.106v6.318H10.761Zm0,0" fill="#0ad4ec"/><path id="Path_142" data-name="Path 142" d="M10.761,26.325h2.106v2.106H10.761Zm0,0" fill="#0ad4ec"/><path id="Path_143" data-name="Path 143" d="M24.759,19.262,37.395,6.626l1.489,1.489L26.248,20.751Zm0,0" fill="#0ad4ec"/><path id="Path_144" data-name="Path 144" d="M36.033,14.742A3.159,3.159,0,1,0,39.192,17.9,3.159,3.159,0,0,0,36.033,14.742Zm0,4.212A1.053,1.053,0,1,1,37.086,17.9,1.053,1.053,0,0,1,36.033,18.954Zm0,0" fill="#0ad4ec"/><path id="Path_145" data-name="Path 145" d="M27.609,12.636A3.159,3.159,0,1,0,24.45,9.477,3.159,3.159,0,0,0,27.609,12.636Zm0-4.212a1.053,1.053,0,1,1-1.053,1.053A1.053,1.053,0,0,1,27.609,8.424Zm0,0" fill="#0ad4ec"/><path id="Path_146" data-name="Path 146" d="M31.821,27.378A13.689,13.689,0,1,0,18.132,13.689,13.689,13.689,0,0,0,31.821,27.378Zm0-25.272A11.583,11.583,0,1,1,20.238,13.689,11.583,11.583,0,0,1,31.821,2.106Zm0,0" fill="#0ad4ec"/></g></g></svg>