<svg xmlns="http://www.w3.org/2000/svg" xmlns:xlink="http://www.w3.org/1999/xlink" width="64" height="64" viewBox="0 0 64 64"><defs><clipPath id="clip-path"><rect id="Rectangle_130" data-name="Rectangle 130" width="64" height="64" transform="translate(391 5195)" fill="#0ad4ec"/></clipPath></defs><g id="Mask_Group_9" data-name="Mask Group 9" transform="translate(-391 -5195)" clip-path="url(#clip-path)"><g id="passport" transform="translate(392.067 5195)"><path id="Path_91" data-name="Path 91" d="M61.76,8.418a1.069,1.069,0,0,0-.607-.546L39.027.061a1.067,1.067,0,0,0-1.361.651L32.64,14.933h-2.2V11.307a3.2,3.2,0,0,0-4.017-3.093L.795,14.969v.019A1.051,1.051,0,0,0,0,16V60.8A3.2,3.2,0,0,0,3.2,64H33.066a3.2,3.2,0,0,0,3.2-3.2V51.121l8.555,3.02a1.067,1.067,0,0,0,1.361-.651L61.805,9.233a1.064,1.064,0,0,0-.046-.815ZM26.969,10.271a1.067,1.067,0,0,1,1.34,1.032v3.631H9.292ZM34.133,60.8a1.067,1.067,0,0,1-1.067,1.067H3.2A1.067,1.067,0,0,1,2.133,60.8V17.067H33.066a1.067,1.067,0,0,1,1.067,1.067ZM42.9,21.128l1.365-.647.651,1.361L39.734,36.509a1.069,1.069,0,0,0,.044.815l1.11,2.323-.343.974L38.429,38.43a1.066,1.066,0,0,0-.9-.32l-1.264.16V36.84l.91-.435a1.069,1.069,0,0,0,.546-.607l2.133-6.033Zm2.011,7.12,2.166,3.48-.37,1.048-2.591-2.269Zm-8.646,5.266V30.582l1.049-.044Zm1.814-5.141-1.814.074v-1.42l2.611-.911Zm6.445,23.4-8.258-2.915V40.42l1-.125,2.947,3.049a1.066,1.066,0,0,0,.768.32,1,1,0,0,0,.226-.024,1.066,1.066,0,0,0,.779-.687l1.067-3.018a1.063,1.063,0,0,0-.044-.815L41.893,36.8l1.459-4.133,3.134,2.747a1.067,1.067,0,0,0,.7.265,1.048,1.048,0,0,0,.27-.035,1.068,1.068,0,0,0,.736-.676l1.067-3.018a1.065,1.065,0,0,0-.1-.918l-3.339-5.364,1.25-3.54a1.067,1.067,0,0,0-.044-.816l-1.3-2.721a1.067,1.067,0,0,0-1.423-.5l-2.722,1.3a1.064,1.064,0,0,0-.545.607L39.786,23.54l-3.52,1.228V18.133a3.19,3.19,0,0,0-1.53-2.717l1.743-4.943.391-1.109,2.454-6.933,20.116,7.1Zm0,0" fill="#0ad4ec"/><path id="Path_92" data-name="Path 92" d="M52.94,16.285l.71-2.012,1.829.645-.71,2.012Zm0,0" fill="#0ad4ec"/><path id="Path_93" data-name="Path 93" d="M38.31,11.12l.71-2.011,1.829.646-.71,2.011Zm0,0" fill="#0ad4ec"/><path id="Path_94" data-name="Path 94" d="M49.283,14.994l.71-2.012,1.829.646-.71,2.011Zm0,0" fill="#0ad4ec"/><path id="Path_95" data-name="Path 95" d="M41.968,12.411l.71-2.011,1.828.646-.71,2.011Zm0,0" fill="#0ad4ec"/><path id="Path_96" data-name="Path 96" d="M45.625,13.7l.71-2.011,1.829.646-.71,2.011Zm0,0" fill="#0ad4ec"/><path id="Path_97" data-name="Path 97" d="M17.642,21.333A10.667,10.667,0,1,0,28.308,32,10.666,10.666,0,0,0,17.642,21.333Zm7.7,7.02-1.455-.32c-.64-.141-1.28-.253-1.927-.35-.1-.646-.213-1.29-.351-1.927l-.32-1.455a8.569,8.569,0,0,1,4.053,4.051ZM9.108,32a8.455,8.455,0,0,1,.107-1.3l2.637-.587c.4-.09.812-.164,1.22-.234a29.2,29.2,0,0,0,0,4.247c-.408-.07-.816-.145-1.22-.235L9.215,33.3A8.457,8.457,0,0,1,9.108,32Zm6.129-2.4a27.032,27.032,0,0,1,4.806,0,26.934,26.934,0,0,1,0,4.806,26.933,26.933,0,0,1-4.806,0A26.934,26.934,0,0,1,15.237,29.6Zm6.968.28c.409.07.816.145,1.22.234l2.638.587a7.7,7.7,0,0,1,0,2.6l-2.638.586c-.4.09-.811.165-1.22.236a29.063,29.063,0,0,0,0-4.248Zm-3.262-6.3.586,2.639c.09.4.165.811.236,1.22a29.07,29.07,0,0,0-4.249,0c.071-.409.145-.816.236-1.22l.586-2.639a7.778,7.778,0,0,1,2.6,0Zm-4.949.721-.32,1.455c-.141.64-.253,1.28-.349,1.927q-.97.145-1.927.349l-1.455.32A8.574,8.574,0,0,1,13.994,24.3ZM9.94,35.644l1.455.32c.64.141,1.28.253,1.927.349q.145.97.349,1.927l.32,1.455a8.571,8.571,0,0,1-4.054-4.048Zm6.4,4.777-.586-2.639c-.091-.4-.165-.811-.236-1.219.706.052,1.416.086,2.125.086s1.417-.035,2.124-.086c-.071.408-.146.816-.236,1.219l-.586,2.639a7.778,7.778,0,0,1-2.6,0Zm4.949-.721.32-1.455c.142-.64.253-1.28.351-1.927.645-.1,1.29-.213,1.927-.349l1.455-.32A8.566,8.566,0,0,1,21.288,39.7Zm0,0" fill="#0ad4ec"/><path id="Path_98" data-name="Path 98" d="M9.108,51.2H26.175v2.133H9.108Zm0,0" fill="#0ad4ec"/><path id="Path_99" data-name="Path 99" d="M11.242,55.466h12.8V57.6h-12.8Zm0,0" fill="#0ad4ec"/><path id="Path_100" data-name="Path 100" d="M16.575,46.933h2.133v2.133H16.575Zm0,0" fill="#0ad4ec"/><path id="Path_101" data-name="Path 101" d="M12.308,46.933h2.133v2.133H12.308Zm0,0" fill="#0ad4ec"/><path id="Path_102" data-name="Path 102" d="M20.842,46.933h2.133v2.133H20.842Zm0,0" fill="#0ad4ec"/></g></g></svg>