<?xml version="1.0"?><svg xmlns="http://www.w3.org/2000/svg" height="512px" viewBox="0 0 60 60" width="512px"><g><g id="092---Traveling"><path id="Shape" d="m42.59 22.081c.4378258-.4815643.6895699-1.1034785.71-1.754.036-1.371-.789-1.943-1.9-3.056-.5265883-.5068637-1.2370512-.7771502-1.9673821-.7484654s-1.4174061.3538618-1.9026179.9004654l-.385-1.155c.9-.912 3.1-3.15 4.866-5.106 4.355-4.817 4.126-8.355 3.825-9.652-.1651354-.67773989-.7010225-1.20276962-1.382-1.354-1.419-.317-5.206-.577-9.654 3.869l-4.2 4.2-1.507-.415c.6228273-1.0282603.4732532-2.34730647-.364-3.21l-1.152-1.151c-1.0629918-1.02429106-2.7542736-.99567075-3.782.064l-2.241 2.241-6.2-1.692c-2.3194194-.6301396-4.7987344.02821389-6.5 1.726l-.318.317c-.4123336.41184295-.60209708.99647622-.51023942 1.57197234.09185765.57549612.45418767 1.07200713.97423942 1.33502766l6.711 3.355c-.664 1.433-1.035 2.9.081 4.015.5775616.5694668 1.395497.8233474 2.194.681 1.336197-.2735099 2.5847683-.871011 3.636-1.74l1.271.635c-2.853 3.015-4.167 5.017-7.388 9.524l-3.5-.875c-.6183793-.1511993-1.2709009.0298253-1.723.478l-.826.825c-.70673507.7097353-.70673507 1.8572647 0 2.567l8.064 8.064c.7096191.7060715 1.8563809.7060715 2.566 0l.824-.825c.4497534-.4515996.631328-1.1051168.479-1.724l-.875-3.5c4.306-3.076 6.443-4.471 9.524-7.387l.635 1.271c-.3424501.4123848-.6454451.8559962-.905 1.325-7.3989246 5.4358584-9.8487524 15.3869023-5.8189904 23.6363665 4.0297621 8.2494642 13.3846671 12.4340409 22.2203788 9.9394787s14.6209739-10.9536207 13.7415311-20.0925059c-.8794428-9.1388851-8.1716478-16.3394876-17.3209195-17.1033393zm14.231 25.1c-1.5665895.4969606-3.0443243 1.2395409-4.378 2.2-1.232.827-3.229 1.7-4.312.727-1.554-1.4 1.509-4.879 1.509-8.51-.011-2.813-1.987-4.862-5.426-5.622-.9194604-.1872021-1.7722022-.6166801-2.47-1.244.4302195-1.1805404.5233619-2.4575267.269-3.688 1.66-1.729 4.379-1.808 7.206-4.9 7.4750327 4.0921542 10.7338907 13.1095284 7.602 21.035zm-16.136-23.174c2.2678326-.0465746 4.5213635.3695613 6.623 1.223-2.327 2.248-4.155 2.325-5.941 3.7l-1.4-4.207zm-2.332-4.578c.672-.673.808-.9 1.2-.908.341-.022.383.11 1.589 1.318.2407388.2815095.2127699.7037071-.063.951l-1.817 1.816-1.031-3.093c.0426243-.0250446.0833958-.0531167.122-.084zm-13.144-14.502c.2488003-.27491869.6707081-.30322278.954-.064l1.151 1.152c.2388244.28287775.2109838.70402247-.063.953l-.267.267-3.208-.875zm-7.419 10.139c-.1973628.0721502-.4181935.034076-.58-.1-.1320196-.1623567-.1699143-.3817669-.1-.579.0976492-.3870704.2315751-.764072.4-1.126l2.1 1.049c-.5652745.3419373-1.1788212.5967952-1.82.756zm11.828 5.662c-3.395 3.393-5.906 5.024-10.366 8.21-.6076273.4320572-.8859975 1.1939964-.7 1.916l.88 3.52-.621.621-7.8-7.8.621-.62 3.52.881c.7233613.1821486 1.4843318-.098648 1.916-.707 3.165-4.43 4.831-6.985 8.211-10.365.2266362-.2273151.3303751-.5496081.2788892-.8664445s-.2519376-.5896984-.5388892-.7335555l-14.891-7.446c1.1940466-1.28845617 3.0047405-1.80739333 4.7-1.347l15.532 4.238c.5186915.1391029 1.0722161-.0083258 1.453-.387l4.4-4.4c3.631-3.63 6.522-3.585 7.7-3.353.139.787.3 3.654-3.386 7.734-1.906 2.11-4.325 4.559-5.02 5.258-.4006996.4003755-.5391261.9936318-.357 1.53l4.859 14.569c.4611064 1.6950761-.0575056 3.5059797-1.346 4.7l-7.443-14.893c-.1438881-.2875476-.4172668-.4883659-.7346844-.5396837s-.6401488.0531256-.8673156.2806837zm2.07 5.669 1.049 2.1c-.3954446.1886692-.8125684.3280463-1.242.415-.1643737.0468149-.3412093.000913-.4620612-.1199388-.1208518-.1208519-.1667537-.2976875-.1199388-.4620612.1488375-.6820689.41079-1.3344149.775-1.93zm-7.145 10.403c.6754682 1.2274466 1.7430502 2.1929181 3.032 2.742 2.2.911 5.074.579 4.921 2.405-.1408182 1.0286281-.4291136 2.0315997-.856 2.978-1.2 3.068-1.126 3.908-.766 6 .3093681 1.2054611.2917636 2.4716061-.051 3.668-5.526189-4.0951934-8.0113259-11.1362828-6.28-17.793zm13.966 21.013c2.2-1.471 4.561-2.22 8.7-1.918.5315174.042423 1.0605338.111846 1.585.208-3.1631306 1.6376152-6.7621446 2.2359928-10.285 1.71zm12.664-3.194c-3.1420074-.9230982-6.4658935-1.0400275-9.665-.34-2.0473605.5409658-3.9404449 1.5517065-5.529 2.952-1.1803059-.3677111-2.3167571-.863672-3.389-1.479.5702468-1.6614704.6586533-3.4504008.255-5.16-.3-1.741-.392-2.256.657-4.934.5016828-1.1245531.8342815-2.3171234.987-3.539.1498002-1.4144916-.6651176-2.7543967-1.99-3.272-1.489-.652-2.937-.643-4.16-1.149-1.4755532-.7423801-2.5099214-2.1424528-2.786-3.771.7052608-1.5546105 1.6441126-2.9922273 2.784-4.263.2-.228.429-.429.643-.644.0978008.4465486.3188308.856736.638 1.184 1.125 1.126 2.6.739 4.015.082l3.355 6.714c.2614851.5212534.757271.8853242 1.3328962.9787865.5756252.0934624 1.161131-.0950426 1.5741038-.5067865.3075382-.2892651.5930017-.6011357.854-.933.8983313.679097 1.9341281 1.153823 3.035 1.391 1.754.387 3.847 1.341 3.856 3.673 0 2.581-1.886 4.836-1.94 7.338-.052 2.423 1.991 3.863 4.328 3.553 2.4-.31 3.747-1.767 5.5-2.663-1.1300836 1.8613368-2.6087928 3.487068-4.355 4.788z" data-original="#000000" class="active-path" data-old_color="#000000" fill="#2FDAEF"/><path id="Shape" d="m13.411 56.088c-6.011-2.706-9.611-6.78-10.694-12.109-1.588-7.809 2.737-16.821 7.427-21.89.3655105-.4065885.3367332-1.0313491-.0646063-1.4026156-.40133956-.3712664-1.02644676-.3513935-1.4033937.0446156-5.193 5.613-9.656 15.101-7.919 23.647 1.219 5.994 5.2 10.548 11.832 13.534.5036837.226989 1.096011.0026837 1.323-.501s.0026837-1.096011-.501-1.323z" data-original="#000000" class="active-path" data-old_color="#000000" fill="#2FDAEF"/><path id="Shape" d="m11.707 35.707c.3789722-.3923789.3735524-1.0160848-.0121814-1.4018186s-1.0094397-.3911536-1.4018186-.0121814c-4.538 4.536-4.261 14.264 5.152 20.539.4595009.306518 1.080482.1825009 1.387-.277s.1825009-1.080482-.277-1.387c-8.262-5.508-8.54-13.768-4.848-17.461z" data-original="#000000" class="active-path" data-old_color="#000000" fill="#2FDAEF"/><path id="Shape" d="m16.742 44.626c-.2659828-1.3845715.0865436-2.8162309.965-3.919.3903819-.3904999.3903819-1.0235001 0-1.414-1.916-1.916-6.019 5.81.586 12.414.3923789.3789722 1.0160848.3735524 1.4018186-.0121814s.3911536-1.0094397.0121814-1.4018186c-1.5849419-1.511312-2.6271176-3.5032208-2.965-5.667z" data-original="#000000" class="active-path" data-old_color="#000000" fill="#2FDAEF"/><circle id="Oval" cx="12" cy="19" r="1" data-original="#000000" class="active-path" data-old_color="#000000" fill="#2FDAEF"/></g></g></svg>