<svg xmlns="http://www.w3.org/2000/svg" xmlns:xlink="http://www.w3.org/1999/xlink" width="64" height="64" viewBox="0 0 64 64"><defs><clipPath id="clip-path"><rect id="Rectangle_130" data-name="Rectangle 130" width="64" height="64" transform="translate(391 5195)" fill="#0ad4ec"/></clipPath></defs><g id="Mask_Group_15" data-name="Mask Group 15" transform="translate(-391 -5195)" clip-path="url(#clip-path)"><g id="stamp" transform="translate(391.001 5195)"><path id="Path_147" data-name="Path 147" d="M56.532,16V5.334a1.067,1.067,0,0,0-1.067-1.067H51.2V6.4h3.2V16Zm0,0" fill="#0ad4ec"/><path id="Path_148" data-name="Path 148" d="M7.468,32V58.665a1.067,1.067,0,0,0,1.067,1.067H51.2a1.067,1.067,0,0,0,1.067-1.067V51.2H50.133v6.4H9.6V32Zm0,0" fill="#0ad4ec"/><path id="Path_149" data-name="Path 149" d="M42.041.108c-.033-.015-.065-.023-.1-.035a1.06,1.06,0,0,0-.276-.055A.407.407,0,0,0,41.6,0H8.535A1.067,1.067,0,0,0,7.468,1.068V3.2H9.6V2.134H40.533v8.533A1.067,1.067,0,0,0,41.6,11.734h8.533v5.333h2.133v-6.4c0-.022-.011-.043-.013-.066a1.039,1.039,0,0,0-.055-.276c-.012-.034-.02-.066-.035-.1a1.06,1.06,0,0,0-.213-.312l-9.6-9.6a1.068,1.068,0,0,0-.308-.206ZM48.624,9.6H42.666V3.643Zm0,0" fill="#0ad4ec"/><path id="Path_150" data-name="Path 150" d="M24.534,44.8v8.533A1.067,1.067,0,0,0,25.6,54.4H39.467V52.265h-12.8v-6.4H32V43.732H25.6A1.067,1.067,0,0,0,24.534,44.8Zm0,0" fill="#0ad4ec"/><path id="Path_151" data-name="Path 151" d="M28.8,48h6.4v2.133H28.8Zm0,0" fill="#0ad4ec"/><path id="Path_152" data-name="Path 152" d="M56.532,18.133A7.476,7.476,0,0,0,49.066,25.6v.107l-5.44,5.742-3.406-3.406a1.066,1.066,0,0,0-1.508,0l-9.6,9.6a1.067,1.067,0,0,0,0,1.508L44.046,54.084a1.067,1.067,0,0,0,1.508,0l3.2-3.2L54.4,45.24V61.864H12.8V64H55.466a1.067,1.067,0,0,0,1.067-1.067v-25.6H54.4v4.891l-3.718-3.718,5.744-5.44h.107a7.466,7.466,0,0,0,0-14.933ZM44.8,51.823,31.375,38.4l1.692-1.692L46.491,50.132Zm8.091-8.091L48,48.623,34.575,35.2l4.891-4.891L42.159,33l-2.4,2.532a1.067,1.067,0,0,0,.02,1.493l5.333,5.333a1.066,1.066,0,0,0,1.487.02l2.533-2.4Zm3.641-12.8H56a1.069,1.069,0,0,0-.734.292l-9.379,8.881-3.86-3.86,8.885-9.379a1.066,1.066,0,0,0,.288-.734V25.6a5.333,5.333,0,1,1,5.333,5.333Zm0,0" fill="#0ad4ec"/><path id="Path_153" data-name="Path 153" d="M20.268,30.933H30.934v2.133H20.268Zm0,0" fill="#0ad4ec"/><path id="Path_154" data-name="Path 154" d="M13.868,35.2h12.8v2.133h-12.8Zm0,0" fill="#0ad4ec"/><path id="Path_155" data-name="Path 155" d="M23.468,26.666h12.8V28.8h-12.8Zm0,0" fill="#0ad4ec"/><path id="Path_156" data-name="Path 156" d="M13.868,39.466h6.4V41.6h-6.4Zm0,0" fill="#0ad4ec"/><path id="Path_157" data-name="Path 157" d="M13.868,43.732H22.4v2.133H13.868Zm0,0" fill="#0ad4ec"/><path id="Path_158" data-name="Path 158" d="M13.868,48H22.4v2.133H13.868Zm0,0" fill="#0ad4ec"/><path id="Path_159" data-name="Path 159" d="M13.868,52.265H22.4V54.4H13.868Zm0,0" fill="#0ad4ec"/><path id="Path_160" data-name="Path 160" d="M13.868,30.933h4.266v2.133H13.868Zm0,0" fill="#0ad4ec"/><path id="Path_161" data-name="Path 161" d="M22.4,39.466h4.266V41.6H22.4Zm0,0" fill="#0ad4ec"/><path id="Path_162" data-name="Path 162" d="M26.667,21.333H37.333v2.133H26.667Zm0,0" fill="#0ad4ec"/><path id="Path_163" data-name="Path 163" d="M12.8,29.866A12.8,12.8,0,0,0,25.578,17.515a2.82,2.82,0,0,0,2.068.646,2.893,2.893,0,0,0,4.441,0,2.893,2.893,0,0,0,3.14-3.14,2.893,2.893,0,0,0,0-4.441,2.893,2.893,0,0,0-3.14-3.14,2.893,2.893,0,0,0-4.441,0,2.893,2.893,0,0,0-3.14,3.14,2.769,2.769,0,0,0-.427.44A12.8,12.8,0,1,0,12.8,29.866ZM26.1,12.1a1.066,1.066,0,0,0,.606-1.462.746.746,0,0,1,1-1,1.066,1.066,0,0,0,1.462-.606.747.747,0,0,1,1.408,0,1.066,1.066,0,0,0,1.462.606.746.746,0,0,1,1,1,1.066,1.066,0,0,0,.606,1.462.747.747,0,0,1,0,1.408,1.066,1.066,0,0,0-.606,1.462.718.718,0,0,1-.147.853.726.726,0,0,1-.854.147,1.066,1.066,0,0,0-1.462.606.747.747,0,0,1-1.408,0,1.064,1.064,0,0,0-.6-.628,1.087,1.087,0,0,0-.408-.081,1.044,1.044,0,0,0-.457.107.746.746,0,0,1-1-1,1.067,1.067,0,0,0-.606-1.462.746.746,0,0,1,0-1.408ZM12.8,6.4A10.666,10.666,0,1,1,2.135,17.067,10.666,10.666,0,0,1,12.8,6.4Zm0,0" fill="#0ad4ec"/><path id="Path_164" data-name="Path 164" d="M7.781,23.154a1.067,1.067,0,0,0,1.508,0L19.955,12.488,18.447,10.98,8.535,20.892,6.089,18.446,4.581,19.954Zm0,0" fill="#0ad4ec"/></g></g></svg>