<svg xmlns="http://www.w3.org/2000/svg" xmlns:xlink="http://www.w3.org/1999/xlink" width="64" height="64" viewBox="0 0 64 64"><defs><clipPath id="clip-path"><rect id="Rectangle_130" data-name="Rectangle 130" width="64" height="64" transform="translate(391 5195)" fill="#0ad4ec"/></clipPath></defs><g id="Mask_Group_12" data-name="Mask Group 12" transform="translate(-391 -5195)" clip-path="url(#clip-path)"><g id="travel" transform="translate(391 5195)"><g id="Group_53" data-name="Group 53"><g id="Group_52" data-name="Group 52"><path id="Path_114" data-name="Path 114" d="M62.2,2.885,58.533.686A1.071,1.071,0,0,0,57.527.637L49.971,4.215,41.321.684a1.071,1.071,0,0,0-.645-.051l-4.267,1a1.067,1.067,0,0,0-.342,1.932l6.419,4.2L37.73,10.015,34.022,8.158a2.133,2.133,0,0,0-2.994,2.533l1.329,4.333A2.125,2.125,0,0,0,34.4,16.532h3.321a1.066,1.066,0,0,0,.374-.067L45,13.874l-.875,7.874a1.067,1.067,0,0,0,1.537,1.072l4.267-2.133a1.07,1.07,0,0,0,.534-.617l3.06-9.181,8.533-4.267A2.134,2.134,0,0,0,62.2,2.885Zm-22.879.252,1.509-.352L47.36,5.452,44.748,6.689ZM52.175,9.179a1.07,1.07,0,0,0-.534.617l-3.06,9.181-2.117,1.058.85-7.651A1.066,1.066,0,0,0,46.252,11.2a1.084,1.084,0,0,0-.374.067L37.525,14.4H34.4l-1.329-4.333,4.173,2.086a1.066,1.066,0,0,0,.933.01L57.926,2.807,61.1,4.714Z" fill="#0ad4ec"/></g></g><g id="Group_55" data-name="Group 55"><g id="Group_54" data-name="Group 54"><path id="Path_115" data-name="Path 115" d="M60.8,43.2H59.516L52.758,31.776c-.02-.034-.043-.066-.066-.1A3.216,3.216,0,0,0,50.133,30.4H5.933a3.21,3.21,0,0,0-3.117,2.479L.8,43.252A1.053,1.053,0,0,0,0,44.266v9.6A5.339,5.339,0,0,0,5.333,59.2H7.84a6.39,6.39,0,0,0,12.053,0h26.08a6.39,6.39,0,0,0,12.053,0h.64A5.339,5.339,0,0,0,64,53.866V46.4A3.2,3.2,0,0,0,60.8,43.2ZM43.733,32.532h6.4a1.075,1.075,0,0,1,.823.388L57.037,43.2h-13.3Zm-13.867,0H41.6V43.2H29.867ZM16,32.532H27.733V43.2H16Zm-11.1.809a1.067,1.067,0,0,1,1.036-.809h7.934V43.2H2.982Zm8.97,27.991a4.267,4.267,0,1,1,4.267-4.267A4.271,4.271,0,0,1,13.867,61.332Zm38.133,0a4.267,4.267,0,1,1,4.267-4.267A4.271,4.271,0,0,1,52,61.332Zm9.867-7.467a3.2,3.2,0,0,1-3.2,3.2H58.4a6.4,6.4,0,1,0-12.8,0H43.733v-9.6H41.6v9.6H29.867v-9.6H27.733v9.6H20.267a6.4,6.4,0,1,0-12.8,0H5.333a3.2,3.2,0,0,1-3.2-3.2V45.332H60.8A1.068,1.068,0,0,1,61.867,46.4Z" fill="#0ad4ec"/></g></g><g id="Group_57" data-name="Group 57"><g id="Group_56" data-name="Group 56"><path id="Path_116" data-name="Path 116" d="M20.909,13.984a5.39,5.39,0,0,0-1.93,1.8l1.794,1.154a3.226,3.226,0,0,1,1.161-1.082Z" fill="#0ad4ec"/></g></g><g id="Group_59" data-name="Group 59"><g id="Group_58" data-name="Group 58"><rect id="Rectangle_131" data-name="Rectangle 131" width="2.133" height="2.133" transform="translate(23.467 13.332)" fill="#0ad4ec"/></g></g><g id="Group_61" data-name="Group 61"><g id="Group_60" data-name="Group 60"><path id="Path_117" data-name="Path 117" d="M33.866,22.2l-.747,2a3.215,3.215,0,0,1,1.3.906l1.612-1.4A5.376,5.376,0,0,0,33.866,22.2Z" fill="#0ad4ec"/></g></g><g id="Group_63" data-name="Group 63"><g id="Group_62" data-name="Group 62"><path id="Path_118" data-name="Path 118" d="M37.213,26.067l-2.085.45a3.23,3.23,0,0,1,.073.682v1.22h2.133V27.2A5.367,5.367,0,0,0,37.213,26.067Z" fill="#0ad4ec"/></g></g><g id="Group_65" data-name="Group 65"><g id="Group_64" data-name="Group 64"><rect id="Rectangle_132" data-name="Rectangle 132" width="2.133" height="2.133" transform="translate(29.258 21.866)" fill="#0ad4ec"/></g></g><g id="Group_67" data-name="Group 67"><g id="Group_66" data-name="Group 66"><rect id="Rectangle_133" data-name="Rectangle 133" width="2.133" height="2.133" transform="translate(27.733 13.332)" fill="#0ad4ec"/></g></g><g id="Group_69" data-name="Group 69"><g id="Group_68" data-name="Group 68"><rect id="Rectangle_134" data-name="Rectangle 134" width="2.133" height="2.133" transform="translate(24.991 21.866)" fill="#0ad4ec"/></g></g><g id="Group_71" data-name="Group 71"><g id="Group_70" data-name="Group 70"><path id="Path_119" data-name="Path 119" d="M20.267,18.666c0-.077,0-.154.009-.228l-2.128-.155c-.01.128-.014.254-.014.383a5.278,5.278,0,0,0,.482,2.217l1.939-.887A3.177,3.177,0,0,1,20.267,18.666Z" fill="#0ad4ec"/></g></g><g id="Group_73" data-name="Group 73"><g id="Group_72" data-name="Group 72"><path id="Path_120" data-name="Path 120" d="M21.551,21.229l-1.28,1.707a5.314,5.314,0,0,0,2.441,1.009l.3-2.112A3.18,3.18,0,0,1,21.551,21.229Z" fill="#0ad4ec"/></g></g></g></g></svg>