<svg xmlns="http://www.w3.org/2000/svg" xmlns:xlink="http://www.w3.org/1999/xlink" width="64" height="64" viewBox="0 0 64 64"><defs><clipPath id="clip-path"><rect id="Rectangle_130" data-name="Rectangle 130" width="64" height="64" transform="translate(391 5195)" fill="#0ad4ec"/></clipPath></defs><g id="Mask_Group_8" data-name="Mask Group 8" transform="translate(-391 -5195)" clip-path="url(#clip-path)"><g id="Page-1" transform="translate(391 5195)"><g id="_041---Discounted-Flight" data-name="041---Discounted-Flight"><path id="Shape" d="M62.077,11.946,56.91,8.258a4.336,4.336,0,0,0-2.47-.791H37.529L29.819.549A2.133,2.133,0,0,0,28.393,0H23.22a2.133,2.133,0,0,0-1.832,3.224l2.544,4.242H13.566L11.918,2.505A2.147,2.147,0,0,0,9.9,1.067H7.466A2.133,2.133,0,0,0,5.333,3.2v8.533H1.067a1.067,1.067,0,1,0,0,2.133H5.333a6.406,6.406,0,0,0,6.4,6.4H22.648l-1.262,2.1A2.133,2.133,0,0,0,23.216,25.6H28.39a2.127,2.127,0,0,0,1.425-.546l1.117-1v3.906a2.7,2.7,0,0,0-.946.609l-3.561,3.56a.716.716,0,0,1-.5.213h-4.6a2.85,2.85,0,0,0-2.847,2.847v4.6a.711.711,0,0,1-.213.5l-3.561,3.56a2.852,2.852,0,0,0,0,4.028l3.56,3.56a.711.711,0,0,1,.213.5v4.6a2.85,2.85,0,0,0,2.847,2.847h4.6a.716.716,0,0,1,.5.213l3.56,3.56a2.847,2.847,0,0,0,4.026,0l3.561-3.56a.716.716,0,0,1,.5-.213h4.6a2.85,2.85,0,0,0,2.847-2.847v-4.6a.711.711,0,0,1,.213-.5l3.561-3.56a2.852,2.852,0,0,0,0-4.028L45.736,40.29a.711.711,0,0,1-.213-.5v-4.6a2.85,2.85,0,0,0-2.847-2.847h-4.6a.716.716,0,0,1-.5-.213l-3.56-3.56a2.717,2.717,0,0,0-.948-.6V22.135l2.083-1.87H59.41a4.586,4.586,0,0,0,2.667-8.32ZM36.063,33.635a2.867,2.867,0,0,0,2.014.834h4.6a.715.715,0,0,1,.714.714v4.6a2.823,2.823,0,0,0,.834,2.013l3.556,3.561a.717.717,0,0,1,0,1.011l-3.561,3.56a2.827,2.827,0,0,0-.833,2.013v4.6a.715.715,0,0,1-.714.714h-4.6a2.863,2.863,0,0,0-2.013.834L32.5,61.65a.727.727,0,0,1-1.009,0l-3.56-3.56a2.867,2.867,0,0,0-2.014-.834h-4.6a.715.715,0,0,1-.714-.714v-4.6a2.823,2.823,0,0,0-.834-2.013L16.213,46.37a.717.717,0,0,1,0-1.011l3.561-3.56a2.827,2.827,0,0,0,.833-2.013v-4.6a.715.715,0,0,1,.714-.714h4.6a2.863,2.863,0,0,0,2.013-.834l3.562-3.556a.727.727,0,0,1,1.009,0ZM55.677,10l3.928,2.8H52.264A1.067,1.067,0,0,1,51.2,11.733V9.6H54.44a2.171,2.171,0,0,1,1.237.4ZM23.22,2.133H28.4l5.94,5.333H26.419Zm36.19,16H37.525l3.742-3.359a1.067,1.067,0,1,0-1.424-1.588L28.39,23.466H23.216l5.43-9.05a1.067,1.067,0,0,0-1.828-1.1l-2.889,4.816h-12.2a4.266,4.266,0,0,1-4.266-4.266h3.2a1.067,1.067,0,0,0,0-2.133h-3.2V3.2H9.9l1.648,4.966A2.147,2.147,0,0,0,13.567,9.6h35.5v2.133a3.2,3.2,0,0,0,3.2,3.2h9.469a2.417,2.417,0,0,1-2.323,3.2Z" fill="#0ad4ec"/><path id="Shape-2" data-name="Shape" d="M17.066,11.733H16a1.067,1.067,0,0,0,0,2.133h1.067a1.067,1.067,0,1,0,0-2.133Z" fill="#0ad4ec"/><path id="Shape-3" data-name="Shape" d="M22.4,11.733H21.332a1.067,1.067,0,1,0,0,2.133H22.4a1.067,1.067,0,1,0,0-2.133Z" fill="#0ad4ec"/><path id="Shape-4" data-name="Shape" d="M34.132,11.733H33.065a1.067,1.067,0,1,0,0,2.133h1.067a1.067,1.067,0,0,0,0-2.133Z" fill="#0ad4ec"/><path id="Shape-5" data-name="Shape" d="M45.864,11.733H44.8a1.067,1.067,0,0,0,0,2.133h1.067a1.067,1.067,0,1,0,0-2.133Z" fill="#0ad4ec"/><path id="Shape-6" data-name="Shape" d="M24.845,53.018a1.067,1.067,0,0,0,1.508,0l12.8-12.8a1.067,1.067,0,0,0-1.508-1.508l-12.8,12.8A1.067,1.067,0,0,0,24.845,53.018Z" fill="#0ad4ec"/><path id="Shape-7" data-name="Shape" d="M29.865,40.531a3.2,3.2,0,1,0-3.2,3.2A3.2,3.2,0,0,0,29.865,40.531Zm-4.266,0A1.067,1.067,0,1,1,26.665,41.6,1.067,1.067,0,0,1,25.6,40.531Z" fill="#0ad4ec"/><path id="Shape-8" data-name="Shape" d="M34.132,51.2a3.2,3.2,0,1,0,3.2-3.2A3.2,3.2,0,0,0,34.132,51.2Zm4.266,0a1.067,1.067,0,1,1-1.067-1.067A1.067,1.067,0,0,1,38.4,51.2Z" fill="#0ad4ec"/></g></g></g></svg>