<svg xmlns="http://www.w3.org/2000/svg" viewBox="0 0 359.91 319.11"><defs><style>.cls-1{fill:#2FDAEF;}</style></defs><title>Ресурс 1</title><g id="Шар_2" data-name="Шар 2"><g id="Layer_1" data-name="Layer 1"><path class="cls-1" d="M208.6,259.88l7-1.09v-78.3a88.87,88.87,0,0,0-19.3-2.62c-16.57,0-30,8-36,36.42,6.43-33.26,21.26-42.53,39.26-42.53,22.25,0,49.18,14.18,70.56,14.18a34.68,34.68,0,0,0,13.52-2.51c8.83-3.71,14.72-14.61,14.72-24.86,0-6.43-2.4-12.65-8-16.68,7,3.93,9.92,10.8,9.92,18.1,0,10.69-6.22,22.14-15.48,26.61A42.77,42.77,0,0,1,266,190.52c-12.11,0-25.08-3.6-37.84-7v75.25l7,1.09Z"/><path class="cls-1" d="M253.05,238V197.82l-5.82-.91h22.08l-5.82.91c0,24.72-.09,14.18-.09,38.62,0,10,1.27,21.08,14.26,21.08s14.27-11.09,14.27-21.17l-.09-6.36V197.73l-2.36-.82h9.9l-2.27.82V238c0,14.54-11,21.81-22,21.81S253.05,252.52,253.05,238Z"/><path class="cls-1" d="M337.92,259.79l5.27-.82-14.63-27.89h-5.63v27.8l5.82.91H306.66l5.82-.91V197.82l-5.82-.91h32c8.54,0,15.54,7.72,15.54,17.08s-7,17.08-15.54,17.08l15,27.71,6.27,1Zm6.54-45.7c0-7.27-3.72-14.45-11.18-14.45H322.93v28.71h10.36C340.74,228.35,344.46,221.17,344.46,214.08Z"/><path class="cls-1" d="M353.06,158.16l-.45-4.27c-.2-2.8-.84-6.85-1.6-11.94a178.87,178.87,0,0,0-4.14-18.12,162.75,162.75,0,0,0-8.2-22.45A166.79,166.79,0,0,0,324.9,76.94a153.05,153.05,0,0,0-20.07-23.72,156.48,156.48,0,0,0-26.08-20.27A149.52,149.52,0,0,0,247.9,18.71a144,144,0,0,0-33.29-6.65c-2.8-.32-5.6-.29-8.39-.43l-1,0h-.26c-.21,0,.14,0,.05,0h-.68l-2.17,0-4.32.07-2.15,0-2,.17-4,.33c-2.65.14-5.34.59-8,.95a150.61,150.61,0,0,0-30,7.66l-6.81,2.74-6.45,3-1.59.73-1.53.82-3,1.62-3,1.59c-1,.56-1.88,1.16-2.82,1.72A166,166,0,0,0,107,46.94c-2.65,2.39-5.26,4.51-7.48,6.69l-3.21,3.11c-1,1-2,1.93-2.87,2.91-1.74,1.91-3.31,3.61-4.7,5.08s-2.4,2.86-3.3,3.93l-2.77,3.28,2.2-3.69c.73-1.19,1.6-2.69,2.7-4.41s2.49-3.6,4-5.74c.73-1.1,1.6-2.17,2.51-3.31l2.85-3.57a47.93,47.93,0,0,1,3.25-3.75l3.62-3.93a139.23,139.23,0,0,1,18.77-16.25,137,137,0,0,1,25.59-14.83,143.89,143.89,0,0,1,31.7-9.9c2.85-.51,5.69-1.12,8.7-1.37L193,.69l2.25-.24,2.15-.1,4.31-.2,2.17-.1.54,0h1.87c3,.08,6.05,0,9.09.29a145.67,145.67,0,0,1,36.25,6.86,147,147,0,0,1,60.79,38.49,150.49,150.49,0,0,1,32.65,53.13,137.6,137.6,0,0,1,6.27,24,140.73,140.73,0,0,1,2,18.9c.16,5.28.09,9.39-.09,12.17Z"/><path class="cls-1" d="M63.37,179.68l.88,3.74c.49,2.46,1.51,6,2.71,10.45s3.07,9.78,5.47,15.73a161.85,161.85,0,0,0,9.22,19.32,163.94,163.94,0,0,0,14,20.87A158.71,158.71,0,0,0,114.67,270c1.78,1.62,3.7,3.11,5.55,4.71s3.86,3,5.84,4.5c4,2.87,8.17,5.68,12.52,8.2a144.14,144.14,0,0,0,27.67,12.65,147.83,147.83,0,0,0,29.67,6.65c2.5.32,5,.44,7.48.68l7.3.31,7.66-.08,7.11-.43a148.6,148.6,0,0,0,27.31-4.94,161.09,161.09,0,0,0,23.54-8.62c3.49-1.75,6.87-3.37,10-5.17s6-3.51,8.75-5.19,5.11-3.5,7.42-5.06,4.29-3.18,6.11-4.62,3.37-2.81,4.78-3.94,2.5-2.22,3.44-3l2.88-2.55-2.37,3c-.79,1-1.72,2.23-2.91,3.6s-2.6,2.94-4.18,4.68-3.49,3.52-5.5,5.55c-1,1-2.15,2-3.3,3s-2.32,2.12-3.62,3.13A137.85,137.85,0,0,1,255.55,311a141,141,0,0,1-28.94,6.93l-7.94.81-7.65.34h-2.15l-2,0c-1.34,0-2.69,0-4,0-2.69-.19-5.41-.28-8.13-.56a146.45,146.45,0,0,1-32.32-6.86,146.54,146.54,0,0,1-55-33.71,148.55,148.55,0,0,1-19.08-22.76A145.82,145.82,0,0,1,75.44,232c-1.68-3.73-3.08-7.38-4.35-10.87s-2.25-6.88-3-10.08a136.78,136.78,0,0,1-3.43-16.68c-.62-4.69-.94-8.36-1-10.86Z"/><path class="cls-1" d="M65.13,86.61v69l13.06,1.53H42.59l13.06-1.53V84.53Zm45.78,68.11V73.61L97.85,72.08h35.59l-13.06,1.53v83.2ZM59,74.91C50.93,70,40.8,67.06,27.75,67.06a106.43,106.43,0,0,0-17,1.42,125.42,125.42,0,0,1,22.69-2.18C97,66.29,98.75,126.16,114.6,150V74.15l-4.88-1.53H123l-4.88,1.53v80.26c.73.65,1.34,1.31,2.07,1.85l1.22.87a16.34,16.34,0,0,0,8.05,2.4,30.15,30.15,0,0,1-6.59.76,21.66,21.66,0,0,1-11.47-3.16l-.49-.44c-19.4-13-20.25-58.78-48.43-79.39Z"/><path class="cls-1" d="M132.34,157.26l5.82-.91V95.29l-5.82-.91h22.08l-5.82.91v61.06l5.82.91Z"/><path class="cls-1" d="M193.67,157.35l6.63-1.09-20.63-28.08L178,130v26.35l5.82.91H161.69l5.82-.91V95.29l-5.82-.91h22.08l-5.82.91V126L207.3,95.38l-2.73-1h9.9l-3.72,1.27-24.81,26L211,156.53l4.73.82Z"/><path class="cls-1" d="M248.67,157.35l5.27-.91-5.54-20.81H229l-5.54,20.44,3.36,1.18H217l4-1.36L237.4,94.66l-.09-.27h10.45l16.63,62,6.27,1Zm-10-57.79-9,33.53h18Z"/><path class="cls-1" d="M0,73.65s2.36-.56,6.58-1.11c2.11-.25,4.68-.49,7.65-.66s6.33-.16,10,0a92,92,0,0,1,11.87,1.31,70.27,70.27,0,0,1,13.05,3.5,55.46,55.46,0,0,1,13.1,6.81L63,84l.39.28.2.14.1.07.19.16,1.37,1.14c.23.2.45.36.7.59l.75.71c.49.48,1,1,1.48,1.45a50.6,50.6,0,0,1,4.92,6.14,76.39,76.39,0,0,1,7,13.4c1.91,4.49,3.51,8.89,5.13,13a120.6,120.6,0,0,0,10.3,21.07,65,65,0,0,0,5.53,7.43c.89,1.09,1.82,2,2.64,2.94l2.41,2.42c.77.69,1.44,1.37,2,1.93l1.57,1.4c.86.77,1.31,1.21,1.31,1.21s-.61-.12-1.74-.4a35,35,0,0,1-4.84-1.57c-1-.42-2.11-1-3.32-1.55s-2.46-1.34-3.71-2.27a40.82,40.82,0,0,1-7.86-7,53.9,53.9,0,0,1-7-10.19,109.72,109.72,0,0,1-5.41-12.31c-1.65-4.27-3.2-8.65-4.91-12.92a75.55,75.55,0,0,0-6-12.15A42.59,42.59,0,0,0,62.39,94l-1-1.11-.52-.55c-.19-.19-.43-.4-.65-.6l-1.32-1.2-1.17-.95A55.21,55.21,0,0,0,46.61,82.8a83.83,83.83,0,0,0-11.72-4.32,108.31,108.31,0,0,0-11.1-2.55c-3.49-.65-6.74-1.06-9.63-1.37S8.72,74,6.62,73.91C2.42,73.64,0,73.65,0,73.65Z"/><path class="cls-1" d="M161.69,192.64l.45-1.83a21.28,21.28,0,0,1,.68-2.18,24.68,24.68,0,0,1,1.18-2.89,34.36,34.36,0,0,1,4.51-7.18,37.25,37.25,0,0,1,8.24-7.47,42.6,42.6,0,0,1,12-5.66l1.73-.47.44-.12.49-.11.84-.18c1.09-.26,2.35-.46,3.61-.67a61.94,61.94,0,0,1,7.56-.53,76.08,76.08,0,0,1,15.6,1.61,158.17,158.17,0,0,1,15.37,4c5,1.54,10,3.18,14.85,4.64a128.19,128.19,0,0,0,14.32,3.65l1.75.3.43.08s.22,0,.14,0l.23,0,.9.12c.64.1,1.08.1,1.62.15s1.07,0,1.61.05a27.18,27.18,0,0,0,16.78-5.8,21.05,21.05,0,0,0,6.1-7.83,20,20,0,0,0,1.69-7.68,25.55,25.55,0,0,0-.48-5.21l-.43-1.83.76,1.74a23.48,23.48,0,0,1,1.34,5.24,20.27,20.27,0,0,1-.72,8.54,22.61,22.61,0,0,1-5.93,9.63,28.84,28.84,0,0,1-11.6,6.89,31.19,31.19,0,0,1-7.35,1.37c-.65,0-1.27.08-2,.06s-1.41,0-2-.06l-.9-.06-.23,0-.31,0-.47,0-1.88-.23a129.34,129.34,0,0,1-15.14-3.15c-5-1.36-10.06-2.93-15-4.43s-9.92-2.93-14.8-4a82.66,82.66,0,0,0-14.39-2A57.17,57.17,0,0,0,190,170.15a41.82,41.82,0,0,0-5.94,1.77,38.88,38.88,0,0,0-5.32,2.37,40.4,40.4,0,0,0-8.35,6,39.08,39.08,0,0,0-5.22,6.12c-.62.94-1.18,1.79-1.58,2.56a20.73,20.73,0,0,0-1.05,2Z"/></g></g></svg>