<svg xmlns="http://www.w3.org/2000/svg" width="24" height="24" fill="none" viewBox="0 0 24 24"><path stroke="#000" stroke-linecap="round" stroke-linejoin="round" stroke-width="1.4" d="M8.38 8.85a14.6 14.6 0 0 0 6.86 6.86c.12.06.18.09.26.11.28.08.63.03.86-.14.07-.05.13-.11.24-.22a5 5 0 0 1 .7-.64 2 2 0 0 1 2.18 0 5 5 0 0 1 .7.64l.2.2c.53.52.8.79.94 1.07a2 2 0 0 1 0 1.8 5 5 0 0 1-.94 1.1l-.16.15c-.53.53-.8.8-1.15 1-.4.22-1.02.38-1.48.38-.41 0-.7-.08-1.26-.24a19.04 19.04 0 0 1-8.29-4.87 19.04 19.04 0 0 1-4.87-8.29c-.16-.56-.24-.85-.24-1.26 0-.46.16-1.08.38-1.48.2-.36.47-.62 1.15-1.15l.16-.16a5 5 0 0 1 1.08-.94 2 2 0 0 1 1.8 0c.3.14.56.3.94.94l.2.2c.34.35.52.52.63.7a2 2 0 0 1 0 2.18c-.11.17-.29.35-.64.7a1.05 1.05 0 0 0-.25 1.37Z"/></svg>
