<?xml version="1.0"?><svg xmlns="http://www.w3.org/2000/svg" id="Layer" enable-background="new 0 0 64 64" height="512px" viewBox="0 0 64 64" width="512px"><g><path d="m37.38 12.552c-.799-.761-2.064-.731-2.828.068-.762.8-.731 2.066.068 2.828l15.341 14.552h-39.961c-1.104 0-2 .896-2 2s.896 2 2 2h39.892l-15.272 14.552c-.8.762-.83 2.028-.068 2.828.393.412.921.62 1.448.62.496 0 .992-.183 1.38-.552l17.445-16.625c.758-.758 1.175-1.76 1.175-2.823s-.417-2.065-1.21-2.858z" fill="#0EC5E5" data-original="#012E52" class="active-path" data-old_color="#012e52"/></g></svg>