<svg xmlns="http://www.w3.org/2000/svg" width="24" height="24" fill="none" viewBox="0 0 24 24"><path stroke="#000" stroke-linecap="round" stroke-linejoin="round" stroke-width="1.4" d="m2 7 8.16 5.72c.67.46 1 .69 1.36.78a2 2 0 0 0 .96 0c.36-.09.7-.32 1.36-.78L22 7"/><path stroke="#000" stroke-linecap="round" stroke-linejoin="round" stroke-width="1.4" d="M6.8 20h10.4c1.68 0 2.52 0 3.16-.33a3 3 0 0 0 1.31-1.3c.33-.65.33-1.49.33-3.17V8.8c0-1.68 0-2.52-.33-3.1a3 3 0 0 0-1.3-1.31C19.71 4 18.87 4 17.2 4H6.8c-1.68 0-2.52 0-3.16.33a3 3 0 0 0-1.31 1.3C2 6.29 2 7.13 2 8.8v6.4c0 .68 0 2.52.33 3.16a3 3 0 0 0 1.3 1.31c.65.33 1.49.33 3.17.33Z"/></svg>
