<svg id="calendar" xmlns="http://www.w3.org/2000/svg" width="15.273" height="15.273" viewBox="0 0 15.273 15.273"><g id="Group_12" data-name="Group 12"><g id="Group_11" data-name="Group 11"><ellipse id="Ellipse_1" data-name="Ellipse 1" cx="0.5" cy="1" rx="0.5" ry="1" transform="translate(11.154 5.273)" fill="#fff"/><path id="Path_3" data-name="Path 3" d="M12.887,1.193h-.776V.6a.6.6,0,0,0-1.193,0v.6H8.2V.6A.6.6,0,1,0,7.01.6v.6H4.325V.6A.6.6,0,1,0,3.132.6v.6H2.386A2.389,2.389,0,0,0,0,3.58v9.307a2.389,2.389,0,0,0,2.386,2.386H6.95a.6.6,0,1,0,0-1.193H2.386a1.2,1.2,0,0,1-1.193-1.193V3.58A1.2,1.2,0,0,1,2.386,2.386h.746v.6a.6.6,0,1,0,1.193,0v-.6H7.01v.6a.6.6,0,1,0,1.193,0v-.6h2.715v.6a.6.6,0,1,0,1.193,0v-.6h.776A1.2,1.2,0,0,1,14.08,3.58v3.4a.6.6,0,0,0,1.193,0V3.58A2.389,2.389,0,0,0,12.887,1.193Z" fill="#fff"/><path id="Path_4" data-name="Path 4" d="M273.609,270a3.609,3.609,0,1,0,3.609,3.609A3.614,3.614,0,0,0,273.609,270Zm0,6.026a2.416,2.416,0,1,1,2.416-2.416A2.419,2.419,0,0,1,273.609,276.026Z" transform="translate(-261.946 -261.946)" fill="#fff"/><path id="Path_5" data-name="Path 5" d="M372.462,331.223h-.268V330.6a.6.6,0,1,0-1.193,0v1.223a.6.6,0,0,0,.6.6h.865a.6.6,0,0,0,0-1.193Z" transform="translate(-359.933 -320.156)" fill="#fff"/><circle id="Ellipse_2" data-name="Ellipse 2" cx="1" cy="1" r="1" transform="translate(8.154 5.273)" fill="#fff"/><circle id="Ellipse_3" data-name="Ellipse 3" cx="0.5" cy="0.5" r="0.5" transform="translate(6.154 8.273)" fill="#fff"/><ellipse id="Ellipse_4" data-name="Ellipse 4" cx="0.5" cy="1" rx="0.5" ry="1" transform="translate(3.154 5.273)" fill="#fff"/><circle id="Ellipse_5" data-name="Ellipse 5" cx="0.5" cy="0.5" r="0.5" transform="translate(3.154 8.273)" fill="#fff"/><circle id="Ellipse_6" data-name="Ellipse 6" cx="0.5" cy="0.5" r="0.5" transform="translate(3.154 11.273)" fill="#fff"/><circle id="Ellipse_7" data-name="Ellipse 7" cx="0.5" cy="0.5" r="0.5" transform="translate(6.154 11.273)" fill="#fff"/><ellipse id="Ellipse_8" data-name="Ellipse 8" cx="0.5" cy="1" rx="0.5" ry="1" transform="translate(6.154 5.273)" fill="#fff"/></g></g></svg>