<svg id="user" xmlns="http://www.w3.org/2000/svg" width="15.273" height="15.273" viewBox="0 0 15.273 15.273"><g id="Group_13" data-name="Group 13" transform="translate(0)"><path id="Path_6" data-name="Path 6" d="M15.235,13.087a.6.6,0,0,0-1.168.243.623.623,0,0,1-.126.523.606.606,0,0,1-.477.227H1.811a.606.606,0,0,1-.477-.227.623.623,0,0,1-.126-.523,6.592,6.592,0,0,1,6.271-5.22q.079,0,.158,0t.159,0a6.563,6.563,0,0,1,5.3,2.913.6.6,0,1,0,.991-.664A7.76,7.76,0,0,0,10.066,7.3a4.057,4.057,0,1,0-4.856,0A7.76,7.76,0,0,0,.039,13.087a1.813,1.813,0,0,0,1.772,2.186H13.463a1.813,1.813,0,0,0,1.772-2.186ZM4.773,4.057a2.864,2.864,0,1,1,3.009,2.86H7.492A2.867,2.867,0,0,1,4.773,4.057Z" transform="translate(0)" fill="#fff"/></g></svg>